<?xml version="1.0" encoding="utf-8"?>
<!-- Svg Vector Icons : http://www.onlinewebfonts.com/icon -->
<!DOCTYPE svg PUBLIC "-//W3C//DTD SVG 1.1//EN" "http://www.w3.org/Graphics/SVG/1.1/DTD/svg11.dtd">
<svg version="1.1" xmlns="http://www.w3.org/2000/svg" xmlns:xlink="http://www.w3.org/1999/xlink" x="0px" y="0px" viewBox="0 0 1000 1000" enable-background="new 0 0 1000 1000" xml:space="preserve">
<metadata> Svg Vector Icons : http://www.onlinewebfonts.com/icon </metadata>
<g><g transform="translate(0.000000,511.000000) scale(0.100000,-0.100000)"><path d="M6868.4,3558.7c-573-61.5-1044.1-290.4-1411.4-680.7c-726.8-774.9-780.7-1957.5-126.9-2805.4c292.3-376.9,703.8-646.1,1188.3-773c190.4-51.9,609.6-69.2,832.6-38.5c217.3,32.7,540.3,140.4,723,244.2l148.1,84.6l492.2-488.4c528.8-526.8,582.6-567.2,761.4-569.2c282.7,0,476.9,257.7,411.5,544.2c-23.1,96.1-46.2,123.1-534.6,613.4l-511.5,515.3l44.2,71.2c651.8,1082.6,238.4,2497.8-896.1,3061.2c-169.2,84.6-401.9,161.5-573,192.3C7283.7,3552.9,6966.5,3570.2,6868.4,3558.7z M7416.4,2810.7c275-75,559.6-259.6,740.3-476.9c117.3-142.3,253.8-415.3,298-598c61.5-257.7,36.5-605.7-67.3-880.7c-90.4-240.4-315.4-513.4-551.9-669.2c-723-476.9-1696-226.9-2090.1,538.4c-128.8,246.1-171.1,448-161.5,740.3c15.4,378.8,130.7,651.8,388.4,926.8c215.3,228.8,461.5,371.1,761.4,438.4C6891.5,2864.6,7253,2854.9,7416.4,2810.7z"/><path d="M934.5,2216.6c-113.4-51.9-223.1-173.1-253.8-278.8c-17.3-53.8-23.1-607.6-23.1-2057.5v-1982.4H1071h413.4v1745.9c0,1332.5,5.8,1751.7,23.1,1769c17.3,17.3,384.6,23.1,1536.4,23.1h1511.4l11.5,207.7c7.7,115.4,32.7,292.3,61.5,403.8c26.9,109.6,48.1,201.9,48.1,207.7c0,3.8-819.1,7.7-1820.9,7.7H1032.6L934.5,2216.6z"/><path d="M7829.8-913.8c-138.5-48.1-315.4-84.6-611.5-125l-61.5-7.7l3.8-523l5.8-523l419.2-5.8l417.2-3.8v624.9c0,344.2-1.9,624.9-3.8,623C7995.2-856.2,7920.2-881.1,7829.8-913.8z"/><path d="M100-2759.8c0-353.8,3.9-396.1,38.5-451.9c19.2-34.6,59.6-76.9,90.4-96.1c50-32.7,230.7-34.6,4093.7-34.6h4043.8l51.9,40.4c130.8,96.2,132.7,105.8,132.7,532.6v388.4l-1763.2,5.8l-1765.2,3.8v-105.8c0-80.8-9.6-115.4-38.5-144.2c-36.5-36.5-63.4-38.5-798-38.5s-761.4,1.9-798,38.5c-28.8,28.8-38.5,63.4-38.5,144.2v105.8H1724.8H100V-2759.8z M7972.1-2748.2c19.2-17.3,30.7-63.5,30.7-113.5c0-125-30.7-144.2-219.2-144.2c-96.2,0-167.3,9.6-180.7,23.1c-38.5,38.5-28.8,221.1,11.5,244.2C7670.3-2705.9,7937.5-2711.7,7972.1-2748.2z"/></g></g>
</svg>